<svg width="38" height="38" viewBox="0 0 38 38" fill="none" xmlns="http://www.w3.org/2000/svg">
<g clip-path="url(#clip0_23_104)">
<path d="M38.0001 25.7168C38.0001 21.0013 35.2949 16.7929 31.2433 14.7458C31.1175 23.7871 23.7872 31.1174 14.7458 31.2432C16.793 35.2948 21.0014 38 25.7169 38C27.9278 38 30.0778 37.4112 31.9669 36.2924L37.9465 37.9464L36.2925 31.9668C37.4113 30.0777 38.0001 27.9277 38.0001 25.7168Z" fill="black"/>
<path d="M29.0195 14.5098C29.0195 6.50893 22.5106 0 14.5098 0C6.50893 0 0 6.50893 0 14.5098C0 17.1173 0.694061 19.6561 2.01202 21.885L0.0533447 28.9659L7.13457 27.0075C9.36345 28.3255 11.9023 29.0195 14.5098 29.0195C22.5106 29.0195 29.0195 22.5106 29.0195 14.5098ZM12.2832 11.1328H10.0566C10.0566 8.67722 12.0542 6.67969 14.5098 6.67969C16.9654 6.67969 18.9629 8.67722 18.9629 11.1328C18.9629 12.3792 18.4352 13.5771 17.5148 14.419L15.623 16.1504V17.8867H13.3965V15.1699L16.0115 12.7764C16.4789 12.3487 16.7363 11.7651 16.7363 11.1328C16.7363 9.90501 15.7376 8.90625 14.5098 8.90625C13.282 8.90625 12.2832 9.90501 12.2832 11.1328ZM13.3965 20.1133H15.623V22.3398H13.3965V20.1133Z" fill="black"/>
</g>
<defs>
<clipPath id="clip0_23_104">
<rect width="38" height="38" fill="white"/>
</clipPath>
</defs>
</svg>
