<svg width="39" height="39" viewBox="0 0 39 39" fill="none" xmlns="http://www.w3.org/2000/svg">
<path d="M38.1333 19.0667C38.1333 24.1235 36.1245 28.9732 32.5488 32.5488C28.9731 36.1245 24.1235 38.1333 19.0667 38.1333C14.0099 38.1333 9.16019 36.1245 5.5845 32.5488C2.0088 28.9732 0 24.1235 0 19.0667C0 18.7055 0.143486 18.3591 0.398893 18.1037C0.654299 17.8483 1.00071 17.7048 1.3619 17.7048C1.7231 17.7048 2.06951 17.8483 2.32492 18.1037C2.58032 18.3591 2.72381 18.7055 2.72381 19.0667C2.71836 22.7139 3.93128 26.2585 6.17005 29.1378C8.40883 32.0171 11.5452 34.0662 15.0813 34.9597C18.6174 35.8533 22.3507 35.5401 25.6885 34.07C29.0264 32.5999 31.7775 30.057 33.5054 26.8449C35.2332 23.6329 35.8387 19.9358 35.2257 16.3404C34.6128 12.745 32.8165 9.45739 30.122 6.99932C27.4274 4.54124 23.9891 3.05359 20.3527 2.77247C16.7163 2.49136 13.0902 3.43289 10.0499 5.44763H10.8952C11.2564 5.44763 11.6028 5.59112 11.8583 5.84652C12.1137 6.10193 12.2571 6.44833 12.2571 6.80953C12.2571 7.17073 12.1137 7.51714 11.8583 7.77255C11.6028 8.02795 11.2564 8.17144 10.8952 8.17144H6.80952C6.63065 8.17154 6.45351 8.13638 6.28823 8.06798C6.12295 7.99957 5.97277 7.89926 5.84628 7.77277C5.7198 7.64629 5.61949 7.49611 5.55108 7.33083C5.48267 7.16555 5.44752 6.98841 5.44762 6.80953V2.72382C5.44762 2.36262 5.59111 2.01621 5.84651 1.76081C6.10192 1.5054 6.44832 1.36192 6.80952 1.36192C7.17072 1.36192 7.51713 1.5054 7.77254 1.76081C8.02794 2.01621 8.17143 2.36262 8.17143 2.72382V3.42373C11.0298 1.4315 14.3795 0.260771 17.8565 0.0387488C21.3335 -0.183273 24.8049 0.551908 27.8934 2.1644C30.9819 3.7769 33.5694 6.20503 35.3748 9.18494C37.1801 12.1649 38.1342 15.5826 38.1333 19.0667ZM31.3238 19.0667C31.3238 21.4909 30.6049 23.8607 29.2581 25.8764C27.9113 27.8921 25.997 29.4631 23.7573 30.3908C21.5176 31.3185 19.0531 31.5612 16.6754 31.0883C14.2978 30.6154 12.1138 29.448 10.3996 27.7338C8.68537 26.0196 7.51799 23.8356 7.04504 21.4579C6.5721 19.0803 6.81483 16.6158 7.74254 14.3761C8.67026 12.1364 10.2413 10.2221 12.257 8.87523C14.2726 7.5284 16.6424 6.80953 19.0667 6.80953C22.3164 6.81308 25.432 8.10559 27.7299 10.4035C30.0278 12.7014 31.3203 15.817 31.3238 19.0667ZM23.9078 20.6574L20.4286 18.3378V12.2572C20.4286 11.896 20.2851 11.5495 20.0297 11.2941C19.7743 11.0387 19.4279 10.8952 19.0667 10.8952C18.7055 10.8952 18.3591 11.0387 18.1037 11.2941C17.8482 11.5495 17.7048 11.896 17.7048 12.2572V19.0667C17.7048 19.2909 17.7602 19.5116 17.866 19.7092C17.9718 19.9069 18.1247 20.0754 18.3112 20.1998L22.3969 22.9236C22.6975 23.1198 23.0633 23.1894 23.4149 23.1173C23.7665 23.0452 24.0754 22.8372 24.2745 22.5386C24.4736 22.24 24.5468 21.8748 24.4781 21.5226C24.4094 21.1703 24.2045 20.8594 23.9078 20.6574Z" fill="black"/>
</svg>
