<svg width="42" height="42" viewBox="0 0 42 42" fill="none" xmlns="http://www.w3.org/2000/svg">
<path d="M24.6881 39.2438C23.604 42.9187 18.396 42.9187 17.3119 39.2438L17.0494 38.3513C16.8874 37.8011 16.6043 37.2941 16.2209 36.8676C15.8375 36.441 15.3635 36.1057 14.8336 35.8862C14.3037 35.6667 13.7314 35.5686 13.1587 35.5991C12.586 35.6295 12.0273 35.7878 11.5237 36.0622L10.71 36.5085C7.34212 38.3408 3.65925 34.6579 5.49412 31.2926L5.93775 30.4763C7.1085 28.3238 5.99812 25.6436 3.64875 24.9506L2.75625 24.6881C-0.91875 23.604 -0.91875 18.396 2.75625 17.3119L3.64875 17.0494C4.19894 16.8874 4.70589 16.6043 5.13243 16.2209C5.55898 15.8375 5.89429 15.3635 6.11379 14.8336C6.33329 14.3037 6.43141 13.7314 6.40095 13.1587C6.37049 12.586 6.21222 12.0273 5.93775 11.5238L5.4915 10.71C3.65925 7.34212 7.34212 3.65925 10.7074 5.49413L11.5237 5.93775C12.0273 6.21222 12.586 6.37049 13.1587 6.40095C13.7314 6.43141 14.3037 6.3333 14.8336 6.1138C15.3635 5.8943 15.8375 5.55898 16.2209 5.13243C16.6043 4.70589 16.8874 4.19894 17.0494 3.64875L17.3119 2.75625C18.396 -0.918747 23.604 -0.918747 24.6881 2.75625L24.9506 3.64875C25.1126 4.19894 25.3957 4.70589 25.7791 5.13243C26.1625 5.55898 26.6365 5.8943 27.1664 6.1138C27.6963 6.3333 28.2686 6.43141 28.8413 6.40095C29.414 6.37049 29.9727 6.21222 30.4762 5.93775L31.29 5.4915C34.6579 3.65925 38.3407 7.34212 36.5059 10.7074L36.0623 11.5238C35.7878 12.0273 35.6295 12.586 35.599 13.1587C35.5686 13.7314 35.6667 14.3037 35.8862 14.8336C36.1057 15.3635 36.441 15.8375 36.8676 16.2209C37.2941 16.6043 37.8011 16.8874 38.3512 17.0494L39.2437 17.3119C42.9187 18.396 42.9187 23.604 39.2437 24.6881L38.3512 24.9506C37.8011 25.1126 37.2941 25.3957 36.8676 25.7791C36.441 26.1625 36.1057 26.6365 35.8862 27.1664C35.6667 27.6963 35.5686 28.2686 35.599 28.8413C35.6295 29.414 35.7878 29.9727 36.0623 30.4763L36.5085 31.29C38.3408 34.6579 34.6579 38.3407 31.2926 36.5059L30.4762 36.0622C29.9727 35.7878 29.414 35.6295 28.8413 35.5991C28.2686 35.5686 27.6963 35.6667 27.1664 35.8862C26.6365 36.1057 26.1625 36.441 25.7791 36.8676C25.3957 37.2941 25.1126 37.8011 24.9506 38.3513L24.6881 39.2438ZM21 13.3088C18.9602 13.3088 17.0039 14.1191 15.5615 15.5615C14.1191 17.0039 13.3088 18.9602 13.3088 21C13.3088 23.0398 14.1191 24.9961 15.5615 26.4385C17.0039 27.8809 18.9602 28.6912 21 28.6912C23.0392 28.6912 24.9948 27.8812 26.4367 26.4393C27.8786 24.9974 28.6886 23.0418 28.6886 21.0026C28.6886 18.9635 27.8786 17.0078 26.4367 15.5659C24.9948 14.1241 23.0392 13.314 21 13.314V13.3088Z" fill="black"/>
</svg>
